<svg xmlns="http://www.w3.org/2000/svg" xmlns:xlink="http://www.w3.org/1999/xlink" width="330" zoomAndPan="magnify" viewBox="0 0 247.5 247.500006" height="330" preserveAspectRatio="xMidYMid meet" version="1.0"><path fill="#737373" d="M 72.320312 0.847656 C 59.183594 1.464844 50.214844 3.570312 42.371094 6.644531 C 34.253906 9.808594 27.375 14.042969 20.535156 20.917969 C 13.683594 27.792969 9.46875 34.683594 6.339844 42.816406 C 3.304688 50.679688 1.246094 59.648438 0.664062 72.796875 C 0.0820312 85.957031 -0.046875 90.15625 0.0117188 123.6875 C 0.0703125 157.207031 0.222656 161.417969 0.847656 174.585938 C 1.476562 187.722656 3.570312 196.683594 6.644531 204.535156 C 9.808594 212.65625 14.042969 219.519531 20.917969 226.371094 C 27.792969 233.226562 34.683594 237.425781 42.816406 240.566406 C 50.667969 243.605469 59.648438 245.675781 72.785156 246.246094 C 85.957031 246.828125 90.15625 246.953125 123.675781 246.882812 C 157.207031 246.828125 161.40625 246.675781 174.574219 246.046875 C 187.710938 245.417969 196.671875 243.3125 204.523438 240.253906 C 212.644531 237.078125 219.519531 232.851562 226.363281 225.976562 C 233.203125 219.101562 237.414062 212.214844 240.554688 204.082031 C 243.59375 196.226562 245.664062 187.246094 246.234375 174.121094 C 246.804688 160.953125 246.941406 156.742188 246.882812 123.222656 C 246.828125 89.703125 246.664062 85.503906 246.046875 72.332031 C 245.417969 59.183594 243.324219 50.226562 240.253906 42.371094 C 237.078125 34.253906 232.851562 27.386719 225.976562 20.535156 C 219.101562 13.695312 212.214844 9.46875 204.082031 6.339844 C 196.226562 3.304688 187.246094 1.234375 174.109375 0.664062 C 160.941406 0.0820312 156.730469 -0.046875 123.210938 0.0117188 C 89.691406 0.0703125 85.492188 0.222656 72.320312 0.847656 M 73.761719 224.011719 C 61.734375 223.488281 55.195312 221.488281 50.832031 219.8125 C 45.058594 217.578125 40.953125 214.902344 36.613281 210.609375 C 32.285156 206.292969 29.609375 202.183594 27.351562 196.4375 C 25.664062 192.085938 23.628906 185.558594 23.058594 173.515625 C 22.441406 160.511719 22.304688 156.601562 22.246094 123.640625 C 22.1875 90.691406 22.304688 86.78125 22.875 73.761719 C 23.386719 61.734375 25.398438 55.195312 27.074219 50.84375 C 29.308594 45.070312 31.972656 40.964844 36.277344 36.625 C 40.59375 32.296875 44.699219 29.621094 50.457031 27.363281 C 54.808594 25.664062 61.335938 23.640625 73.367188 23.070312 C 86.386719 22.453125 90.285156 22.328125 123.246094 22.257812 C 156.207031 22.1875 160.113281 22.304688 173.132812 22.886719 C 185.164062 23.410156 191.703125 25.398438 196.054688 27.085938 C 201.824219 29.320312 205.941406 31.972656 210.269531 36.289062 C 214.597656 40.605469 217.285156 44.699219 219.53125 50.46875 C 221.230469 54.808594 223.253906 61.347656 223.824219 73.367188 C 224.441406 86.386719 224.582031 90.296875 224.640625 123.246094 C 224.699219 156.207031 224.582031 160.113281 224.011719 173.121094 C 223.488281 185.152344 221.488281 191.703125 219.8125 196.054688 C 217.578125 201.8125 214.914062 205.929688 210.597656 210.257812 C 206.28125 214.574219 202.183594 217.261719 196.414062 219.519531 C 192.074219 221.21875 185.535156 223.242188 173.515625 223.8125 C 160.5 224.429688 156.601562 224.570312 123.628906 224.628906 C 90.679688 224.6875 86.769531 224.570312 73.75 224 M 174.402344 57.464844 C 174.414062 65.640625 181.066406 72.261719 189.234375 72.238281 C 197.414062 72.226562 204.035156 65.582031 204.023438 57.40625 C 204.011719 49.226562 197.355469 42.605469 189.175781 42.617188 C 181 42.628906 174.378906 49.285156 174.390625 57.453125 M 60.058594 123.570312 C 60.128906 158.578125 88.5625 186.898438 123.558594 186.828125 C 158.566406 186.757812 186.898438 158.335938 186.828125 123.324219 C 186.757812 88.328125 158.324219 60 123.3125 60.058594 C 88.316406 60.128906 59.988281 88.5625 60.058594 123.570312 M 82.289062 123.523438 C 82.257812 100.800781 100.636719 82.335938 123.359375 82.300781 C 146.082031 82.257812 164.546875 100.636719 164.59375 123.371094 C 164.640625 146.09375 146.246094 164.558594 123.523438 164.59375 C 100.800781 164.640625 82.335938 146.246094 82.300781 123.523438 " fill-opacity="1" fill-rule="nonzero"/></svg>