<svg xmlns="http://www.w3.org/2000/svg" xmlns:xlink="http://www.w3.org/1999/xlink" width="330" zoomAndPan="magnify" viewBox="0 0 247.5 247.500006" height="330" preserveAspectRatio="xMidYMid meet" version="1.0"><path fill="#737373" d="M 210.15625 210.40625 L 173.605469 210.40625 L 173.605469 153.175781 C 173.605469 139.527344 173.363281 121.960938 154.597656 121.960938 C 135.835938 121.960938 132.648438 136.828125 132.648438 152.1875 L 132.648438 210.40625 L 96.097656 210.40625 L 96.097656 92.710938 L 131.183594 92.710938 L 131.183594 108.800781 L 131.671875 108.800781 C 138.824219 96.570312 152.132812 89.257812 166.292969 89.792969 C 203.332031 89.792969 210.167969 114.160156 210.167969 145.851562 L 210.167969 210.417969 Z M 54.875 76.621094 C 43.15625 76.621094 33.667969 67.132812 33.65625 55.414062 C 33.644531 43.695312 43.144531 34.207031 54.863281 34.199219 C 66.582031 34.199219 76.066406 43.683594 76.078125 55.402344 C 76.089844 67.121094 66.59375 76.609375 54.875 76.621094 M 73.148438 210.40625 L 36.5625 210.40625 L 36.5625 92.710938 L 73.148438 92.710938 Z M 228.375 0.261719 L 18.207031 0.261719 C 8.265625 0.15625 0.117188 8.109375 0 18.050781 L 0 229.101562 C 0.117188 239.042969 8.265625 247.003906 18.207031 246.902344 L 228.386719 246.902344 C 238.351562 247.027344 246.523438 239.066406 246.664062 229.101562 L 246.664062 18.027344 C 246.511719 8.074219 238.339844 0.121094 228.375 0.25 " fill-opacity="1" fill-rule="nonzero"/></svg>