<svg xmlns="http://www.w3.org/2000/svg" xmlns:xlink="http://www.w3.org/1999/xlink" width="330" zoomAndPan="magnify" viewBox="0 0 247.5 247.500006" height="330" preserveAspectRatio="xMidYMid meet" version="1.0"><defs><clipPath id="73915d5b6d"><path d="M 0 0 L 247 0 L 247 246.253906 L 0 246.253906 Z M 0 0 " clip-rule="nonzero"/></clipPath></defs><g clip-path="url(#73915d5b6d)"><path fill="#737373" d="M 247.472656 123.738281 C 247.472656 55.394531 192.078125 0 123.746094 0 C 55.410156 0 0.0078125 55.394531 0.0078125 123.738281 C 0.0078125 181.765625 39.953125 230.464844 93.847656 243.835938 L 93.847656 161.554688 L 68.328125 161.554688 L 68.328125 123.738281 L 93.847656 123.738281 L 93.847656 107.445312 C 93.847656 65.335938 112.90625 45.8125 154.253906 45.8125 C 162.09375 45.8125 175.621094 47.34375 181.148438 48.886719 L 181.148438 83.160156 C 178.230469 82.847656 173.152344 82.691406 166.855469 82.691406 C 146.566406 82.691406 138.726562 90.378906 138.726562 110.355469 L 138.726562 123.726562 L 179.140625 123.726562 L 172.199219 161.542969 L 138.726562 161.542969 L 138.726562 246.554688 C 199.996094 239.160156 247.472656 186.984375 247.472656 123.726562 Z M 247.472656 123.738281 " fill-opacity="1" fill-rule="nonzero"/></g></svg>